<mxfile host="app.diagrams.net" modified="2024-04-04T14:50:49.831Z" agent="Mozilla/5.0 (Windows NT 10.0; Win64; x64) AppleWebKit/537.36 (KHTML, like Gecko) Chrome/123.0.0.0 Safari/537.36" etag="rXJFgbe-gVwQPPOfgamq" version="24.0.6" type="device">
  <diagram name="Page-1" id="LI0rpPIILCPkiA2WDIow">
    <mxGraphModel dx="1313" dy="653" grid="1" gridSize="10" guides="1" tooltips="1" connect="1" arrows="1" fold="1" page="1" pageScale="1" pageWidth="850" pageHeight="1100" math="0" shadow="0">
      <root>
        <mxCell id="0" />
        <mxCell id="1" parent="0" />
        <mxCell id="D9TY2Atrrgyc-9nNGreE-1" value="&lt;b&gt;PHP Frontend&lt;/b&gt;&lt;div&gt;&lt;b&gt;(UI)&lt;/b&gt;&lt;/div&gt;" style="rounded=0;whiteSpace=wrap;html=1;" vertex="1" parent="1">
          <mxGeometry x="305" y="320" width="120" height="60" as="geometry" />
        </mxCell>
        <mxCell id="D9TY2Atrrgyc-9nNGreE-12" style="edgeStyle=orthogonalEdgeStyle;rounded=0;orthogonalLoop=1;jettySize=auto;html=1;exitX=1;exitY=0.5;exitDx=0;exitDy=0;entryX=0;entryY=0.5;entryDx=0;entryDy=0;" edge="1" parent="1" source="D9TY2Atrrgyc-9nNGreE-3" target="D9TY2Atrrgyc-9nNGreE-5">
          <mxGeometry relative="1" as="geometry" />
        </mxCell>
        <mxCell id="D9TY2Atrrgyc-9nNGreE-3" value="&lt;div&gt;&lt;b&gt;&lt;br&gt;&lt;/b&gt;&lt;/div&gt;&lt;div&gt;&lt;b&gt;&lt;br&gt;&lt;/b&gt;&lt;/div&gt;&lt;div&gt;&lt;b&gt;&lt;br&gt;&lt;/b&gt;&lt;/div&gt;&lt;div&gt;&lt;b&gt;MySQL&lt;br&gt;Database&lt;/b&gt;&lt;/div&gt;&lt;div&gt;&lt;b&gt;&lt;br&gt;&lt;/b&gt;&lt;/div&gt;&lt;div&gt;&lt;div&gt;&lt;b&gt;&lt;br&gt;&lt;/b&gt;&lt;/div&gt;&lt;div&gt;&lt;b&gt;&lt;br&gt;&lt;/b&gt;&lt;div&gt;&lt;br&gt;&lt;/div&gt;&lt;/div&gt;&lt;/div&gt;" style="rounded=0;whiteSpace=wrap;html=1;" vertex="1" parent="1">
          <mxGeometry x="310" y="660" width="120" height="60" as="geometry" />
        </mxCell>
        <mxCell id="D9TY2Atrrgyc-9nNGreE-4" value="&lt;b&gt;PHP&amp;nbsp; Backend&lt;/b&gt;&lt;div&gt;&lt;br&gt;&lt;/div&gt;" style="rounded=0;whiteSpace=wrap;html=1;" vertex="1" parent="1">
          <mxGeometry x="300" y="480" width="120" height="60" as="geometry" />
        </mxCell>
        <mxCell id="D9TY2Atrrgyc-9nNGreE-5" value="&lt;b&gt;Python Raft Nodes&lt;/b&gt;&lt;div&gt;&lt;br&gt;&lt;/div&gt;" style="rounded=0;whiteSpace=wrap;html=1;" vertex="1" parent="1">
          <mxGeometry x="530" y="660" width="120" height="60" as="geometry" />
        </mxCell>
        <mxCell id="D9TY2Atrrgyc-9nNGreE-6" value="" style="endArrow=classic;startArrow=classic;html=1;rounded=0;entryX=0.5;entryY=1;entryDx=0;entryDy=0;" edge="1" parent="1" target="D9TY2Atrrgyc-9nNGreE-1">
          <mxGeometry width="50" height="50" relative="1" as="geometry">
            <mxPoint x="364" y="472" as="sourcePoint" />
            <mxPoint x="170" y="670" as="targetPoint" />
          </mxGeometry>
        </mxCell>
        <mxCell id="D9TY2Atrrgyc-9nNGreE-8" value="" style="endArrow=classic;startArrow=classic;html=1;rounded=0;entryX=0.5;entryY=1;entryDx=0;entryDy=0;exitX=0.433;exitY=0.017;exitDx=0;exitDy=0;exitPerimeter=0;" edge="1" parent="1" source="D9TY2Atrrgyc-9nNGreE-3" target="D9TY2Atrrgyc-9nNGreE-4">
          <mxGeometry width="50" height="50" relative="1" as="geometry">
            <mxPoint x="360" y="505" as="sourcePoint" />
            <mxPoint x="360" y="400" as="targetPoint" />
          </mxGeometry>
        </mxCell>
        <mxCell id="D9TY2Atrrgyc-9nNGreE-9" value="HTTP&lt;br&gt;&lt;br&gt;&lt;div&gt;&lt;br&gt;&lt;/div&gt;" style="text;html=1;align=center;verticalAlign=middle;resizable=0;points=[];autosize=1;strokeColor=none;fillColor=none;" vertex="1" parent="1">
          <mxGeometry x="380" y="410" width="50" height="60" as="geometry" />
        </mxCell>
        <mxCell id="D9TY2Atrrgyc-9nNGreE-10" value="&amp;nbsp;SqL&lt;br&gt;Queries&lt;div&gt;&lt;br&gt;&lt;/div&gt;" style="text;html=1;align=center;verticalAlign=middle;resizable=0;points=[];autosize=1;strokeColor=none;fillColor=none;" vertex="1" parent="1">
          <mxGeometry x="355" y="563" width="70" height="60" as="geometry" />
        </mxCell>
        <mxCell id="D9TY2Atrrgyc-9nNGreE-16" style="edgeStyle=orthogonalEdgeStyle;rounded=0;orthogonalLoop=1;jettySize=auto;html=1;exitX=0.5;exitY=1;exitDx=0;exitDy=0;entryX=0.25;entryY=0;entryDx=0;entryDy=0;" edge="1" parent="1" source="D9TY2Atrrgyc-9nNGreE-13" target="D9TY2Atrrgyc-9nNGreE-1">
          <mxGeometry relative="1" as="geometry">
            <mxPoint x="370" y="320.0000000000001" as="targetPoint" />
          </mxGeometry>
        </mxCell>
        <mxCell id="D9TY2Atrrgyc-9nNGreE-13" value="Admin" style="rounded=0;whiteSpace=wrap;html=1;" vertex="1" parent="1">
          <mxGeometry x="140" y="160" width="120" height="60" as="geometry" />
        </mxCell>
        <mxCell id="D9TY2Atrrgyc-9nNGreE-19" style="edgeStyle=orthogonalEdgeStyle;rounded=0;orthogonalLoop=1;jettySize=auto;html=1;exitX=0.5;exitY=1;exitDx=0;exitDy=0;entryX=0.5;entryY=0;entryDx=0;entryDy=0;" edge="1" parent="1" source="D9TY2Atrrgyc-9nNGreE-14" target="D9TY2Atrrgyc-9nNGreE-1">
          <mxGeometry relative="1" as="geometry" />
        </mxCell>
        <mxCell id="D9TY2Atrrgyc-9nNGreE-14" value="Project Manager" style="rounded=0;whiteSpace=wrap;html=1;" vertex="1" parent="1">
          <mxGeometry x="305" y="160" width="120" height="60" as="geometry" />
        </mxCell>
        <mxCell id="D9TY2Atrrgyc-9nNGreE-20" style="edgeStyle=orthogonalEdgeStyle;rounded=0;orthogonalLoop=1;jettySize=auto;html=1;exitX=0.5;exitY=1;exitDx=0;exitDy=0;entryX=0.75;entryY=0;entryDx=0;entryDy=0;" edge="1" parent="1" source="D9TY2Atrrgyc-9nNGreE-15" target="D9TY2Atrrgyc-9nNGreE-1">
          <mxGeometry relative="1" as="geometry" />
        </mxCell>
        <mxCell id="D9TY2Atrrgyc-9nNGreE-15" value="Employee" style="rounded=0;whiteSpace=wrap;html=1;" vertex="1" parent="1">
          <mxGeometry x="460" y="160" width="120" height="60" as="geometry" />
        </mxCell>
        <mxCell id="D9TY2Atrrgyc-9nNGreE-21" value="These&lt;br&gt;entities&lt;br&gt;interact with&lt;br&gt;frontend&lt;div&gt;&lt;br&gt;&lt;/div&gt;" style="text;html=1;align=center;verticalAlign=middle;resizable=0;points=[];autosize=1;strokeColor=none;fillColor=none;" vertex="1" parent="1">
          <mxGeometry x="430" y="280" width="90" height="90" as="geometry" />
        </mxCell>
        <mxCell id="D9TY2Atrrgyc-9nNGreE-22" value="CRUD&lt;br&gt;operations&lt;div&gt;&lt;br&gt;&lt;/div&gt;" style="text;html=1;align=center;verticalAlign=middle;resizable=0;points=[];autosize=1;strokeColor=none;fillColor=none;" vertex="1" parent="1">
          <mxGeometry x="270" y="563" width="80" height="60" as="geometry" />
        </mxCell>
        <mxCell id="D9TY2Atrrgyc-9nNGreE-23" value="Leader" style="ellipse;whiteSpace=wrap;html=1;aspect=fixed;" vertex="1" parent="1">
          <mxGeometry x="540" y="750" width="80" height="80" as="geometry" />
        </mxCell>
        <mxCell id="D9TY2Atrrgyc-9nNGreE-24" value="Candidate" style="ellipse;whiteSpace=wrap;html=1;aspect=fixed;" vertex="1" parent="1">
          <mxGeometry x="540" y="543" width="80" height="80" as="geometry" />
        </mxCell>
        <mxCell id="D9TY2Atrrgyc-9nNGreE-25" value="Followers" style="ellipse;whiteSpace=wrap;html=1;aspect=fixed;" vertex="1" parent="1">
          <mxGeometry x="680" y="650" width="80" height="80" as="geometry" />
        </mxCell>
      </root>
    </mxGraphModel>
  </diagram>
</mxfile>
